# xmcd
#
# Track frame offsets:
#	150
#	18295
#	27967
#	42463
#	46867
#	60021
#	68213
#	83548
#	101833
#	119468
#	134711
#	137364
#	151474
#	163483
#	179507
#
# Disc length: 2501 seconds
#
# Revision: 2
# Processed by: cddbd v1.4PL0 Copyright (c) Steve Scherf et al.
# Submitted via: EZCDDA 4.3.2
#
DISCID=c909c30f
DTITLE=La Tordue - Les Choses de Rien
DYEAR=1900
DGENRE=
TTITLE0=Paris, Oct 67
TTITLE1=Les Mots
TTITLE2=La Polka
TTITLE3=La P'tite Valse
TTITLE4=Le Brouillard
TTITLE5=Les Rats
TTITLE6=INRI
TTITLE7=La Valse Petite
TTITLE8=Bondieu !
TTITLE9=Sur le Pressoir
TTITLE10=Hop !
TTITLE11=Ton Cul
TTITLE12=La Bête
TTITLE13=La Rose et le Réséda
TTITLE14=Hastaluego
EXTD=
EXTT0=
EXTT1=
EXTT2=
EXTT3=
EXTT4=
EXTT5=
EXTT6=
EXTT7=
EXTT8=
EXTT9=
EXTT10=
EXTT11=
EXTT12=
EXTT13=
EXTT14=
PLAYORDER=
